<?xml version="1.0" encoding="iso-8859-1"?>
<!-- Generator: Adobe Illustrator 19.0.0, SVG Export Plug-In . SVG Version: 6.00 Build 0)  -->
<svg version="1.1" id="Layer_1" xmlns="http://www.w3.org/2000/svg" xmlns:xlink="http://www.w3.org/1999/xlink" x="0px" y="0px"
	 viewBox="0 0 460 460" style="enable-background:new 0 0 460 460;" xml:space="preserve">
<g id="XMLID_1739_">
	<path id="XMLID_877_" style="fill:#957C4D;" d="M230,390c0,8.284-6.716,15-15,15c-52.935,0-96-43.065-96-96V70h30v239
		c0,36.393,29.607,66,66,66C223.284,375,230,381.716,230,390z M341,200v109c0,36.393-29.607,66-66,66c-8.284,0-15,6.716-15,15
		s6.716,15,15,15c52.935,0,96-43.065,96-96V200H341z"/>
	<path id="XMLID_15_" style="fill:#8A9249;" d="M225.474,74.871c28.388,29.031,28.388,76.098,0,105.129L135,87.478L44.526,180
		c-28.388-29.031-28.388-76.098,0-105.129c0.18-0.184,0.368-0.352,0.549-0.534H0C0,33.282,32.545,0,72.692,0
		C99.138,0,122.281,14.446,135,36.038C147.719,14.446,170.862,0,197.308,0C237.455,0,270,33.282,270,74.337h-45.075
		C225.106,74.519,225.294,74.687,225.474,74.871z M424.942,207.818H460C460,175.886,434.687,150,403.462,150
		c-20.569,0-38.569,11.235-48.462,28.03c-9.893-16.794-27.892-28.03-48.462-28.03C275.313,150,250,175.886,250,207.818h35.058
		c-0.141,0.141-0.287,0.272-0.427,0.415c-22.08,22.579-22.08,59.188,0,81.767L355,218.039L425.369,290
		c22.08-22.579,22.08-59.188,0-81.767C425.229,208.09,425.083,207.959,424.942,207.818z"/>
	<path id="XMLID_1272_" style="fill:#A5AA61;" d="M238.846,74.337H171.5c8.703,2.831,17.262,8.047,24.601,15.552
		c20.277,20.736,23.565,50.994,7.343,67.583L135,87.479l-68.445,69.994c-16.222-16.589-12.934-46.847,7.343-67.583
		c7.339-7.505,15.898-12.721,24.601-15.552H31.154c0-23.46,23.247-42.479,51.923-42.479c24.194,0,44.523,13.538,50.287,31.859h3.272
		c5.764-18.321,26.093-31.859,50.287-31.859C215.599,31.859,238.846,50.877,238.846,74.337z M383.389,207.818h52.38
		c0-18.247-18.081-33.039-40.385-33.039c-18.818,0-34.629,10.529-39.112,24.779h-2.545c-4.483-14.25-20.294-24.779-39.112-24.779
		c-22.304,0-40.385,14.792-40.385,33.039h52.38c-6.769,2.202-13.426,6.259-19.134,12.096c-15.771,16.128-18.328,39.662-5.711,52.564
		L355,218.039l53.235,54.439c12.617-12.902,10.06-36.437-5.711-52.564C396.816,214.077,390.158,210.02,383.389,207.818z"/>
	<path id="XMLID_1271_" style="fill:#E5C36E;" d="M370,460H90c0-77.32,62.68-140,140-140S370,382.68,370,460z"/>
	<path id="XMLID_1064_" style="fill:#EAD07D;" d="M150.17,344.987C172.816,329.24,200.327,320,230,320s57.184,9.24,79.83,24.987
		C307.253,386.845,272.506,420,230,420l0,0C187.494,420,152.747,386.845,150.17,344.987z"/>
</g>
<g>
</g>
<g>
</g>
<g>
</g>
<g>
</g>
<g>
</g>
<g>
</g>
<g>
</g>
<g>
</g>
<g>
</g>
<g>
</g>
<g>
</g>
<g>
</g>
<g>
</g>
<g>
</g>
<g>
</g>
</svg>
